<?xml version="1.0" encoding="iso-8859-1"?>
<!-- Generator: Adobe Illustrator 19.0.0, SVG Export Plug-In . SVG Version: 6.00 Build 0)  -->
<svg version="1.1" id="Capa_1" xmlns="http://www.w3.org/2000/svg" xmlns:xlink="http://www.w3.org/1999/xlink" x="0px" y="0px"
	 viewBox="0 0 512 512" style="enable-background:new 0 0 512 512;" xml:space="preserve">
<g>
	<g>
		<path d="M256,0c-31.136,0-63.584,5.92-94.688,16.64l-0.384-0.384l-9.568,3.68c-33.984,13.12-63.808,31.36-87.744,53.472
			c-8,7.392-15.328,15.2-21.984,23.424l-6.208,7.68l0.352,0.768C12.704,136.512,0,171.68,0,208c0,21.6,8.416,41.696,23.392,56.288
			C38.304,279.584,58.4,288,80,288h107.744l-25.152,105.76C160.864,400.992,160,408.512,160,416c0,52.928,43.072,96,96,96
			c52.928,0,96-43.072,96-96c0-7.488-0.864-15.008-2.592-22.304L324.256,288H432c44.128,0,80-35.872,80-80
			C512,85.44,377.088,0,256,0z M81.6,100.928c2.048-1.984,3.968-4.032,6.112-5.952c5.92-5.312,12.224-10.368,18.944-15.136
			c0.672-0.48,1.216-0.992,1.888-1.472C116,73.184,123.968,68.448,132.256,64c2.528-1.376,5.184-2.56,7.776-3.84
			c4.064-2.016,8.288-3.84,12.512-5.664C157.376,61.952,160,70.752,160,80c0,26.464-21.536,48-48,48
			c-15.136,0-29.184-7.232-38.048-18.944C76.448,106.304,78.912,103.552,81.6,100.928z M256,480c-35.296,0-64-28.704-64-64
			c0-5.024,0.608-10.048,1.728-14.88L220.64,288h70.72l26.912,113.056c1.12,4.896,1.728,9.92,1.728,14.944
			C320,451.296,291.296,480,256,480z M432,256H304h-96H80c-12.896,0-24.832-4.992-33.984-14.336C36.992,232.832,32,220.896,32,208
			c0-25.856,7.616-50.4,22.112-73.408C68.928,150.336,89.632,160,112,160c44.128,0,80-35.872,80-80
			c0-13.152-3.456-25.568-9.376-36.8C206.976,35.936,232,32,256,32c105.952,0,224,72.288,224,176C480,234.464,458.464,256,432,256z"
			/>
	</g>
</g>
<g>
	<g>
		<path d="M352,96c-35.296,0-64,28.704-64,64c0,35.296,28.704,64,64,64c35.296,0,64-28.704,64-64S387.296,96,352,96z M352,192
			c-17.664,0-32-14.336-32-32s14.336-32,32-32s32,14.336,32,32S369.664,192,352,192z"/>
	</g>
</g>
<g>
</g>
<g>
</g>
<g>
</g>
<g>
</g>
<g>
</g>
<g>
</g>
<g>
</g>
<g>
</g>
<g>
</g>
<g>
</g>
<g>
</g>
<g>
</g>
<g>
</g>
<g>
</g>
<g>
</g>
</svg>
