<?xml version="1.0" encoding="UTF-8" standalone="no"?>
<svg
   xmlns:dc="http://purl.org/dc/elements/1.1/"
   xmlns:cc="http://creativecommons.org/ns#"
   xmlns:rdf="http://www.w3.org/1999/02/22-rdf-syntax-ns#"
   xmlns:svg="http://www.w3.org/2000/svg"
   xmlns="http://www.w3.org/2000/svg"
   xmlns:sodipodi="http://sodipodi.sourceforge.net/DTD/sodipodi-0.dtd"
   xmlns:inkscape="http://www.inkscape.org/namespaces/inkscape"
   width="153.84766pt"
   height="14.964844pt"
   viewBox="0 0 153.84766 14.964844"
   version="1.1"
   id="svg2"
   inkscape:version="0.91 r13725"
   sodipodi:docname="author_line.svg">
  <metadata
     id="metadata47">
    <rdf:RDF>
      <cc:Work
         rdf:about="">
        <dc:format>image/svg+xml</dc:format>
        <dc:type
           rdf:resource="http://purl.org/dc/dcmitype/StillImage" />
        <dc:title></dc:title>
      </cc:Work>
    </rdf:RDF>
  </metadata>
  <defs
     id="defs45" />
  <sodipodi:namedview
     pagecolor="#ffffff"
     bordercolor="#666666"
     borderopacity="1"
     objecttolerance="10"
     gridtolerance="10"
     guidetolerance="10"
     inkscape:pageopacity="0"
     inkscape:pageshadow="2"
     inkscape:window-width="1883"
     inkscape:window-height="1036"
     id="namedview43"
     showgrid="false"
     fit-margin-top="0"
     fit-margin-left="0"
     fit-margin-right="0"
     fit-margin-bottom="0"
     inkscape:zoom="3.5190983"
     inkscape:cx="112.58419"
     inkscape:cy="8.376587"
     inkscape:window-x="0"
     inkscape:window-y="0"
     inkscape:window-maximized="1"
     inkscape:current-layer="svg2" />
  <path
     inkscape:connector-curvature="0"
     id="path11"
     d="m 7.578125,11.566407 0,-1.28125 -6.136719,0 0,-3.988282 6.015626,0 0,-1.285156 -6.015626,0 0,-3.726562 6.136719,0 L 7.578125,0 0,0 0,11.566407 Z m 0,0"
     style="fill:#303030;fill-opacity:1;fill-rule:nonzero;stroke:none" />
  <path
     inkscape:connector-curvature="0"
     id="path13"
     d="m 11.984375,11.566407 0,-11.566407 -1.300781,0 0,11.566407 z m 0,0"
     style="fill:#303030;fill-opacity:1;fill-rule:nonzero;stroke:none" />
  <path
     inkscape:connector-curvature="0"
     id="path15"
     d="m 16.09375,1.996094 c 0.484375,0 0.882813,-0.382813 0.882813,-0.867187 0,-0.488282 -0.398438,-0.886719 -0.882813,-0.886719 -0.46875,0 -0.867187,0.398437 -0.867187,0.886719 0,0.484374 0.398437,0.867187 0.867187,0.867187 z m 0.660156,9.570313 0,-8.375 -1.300781,0 0,8.375 z m 0,0"
     style="fill:#303030;fill-opacity:1;fill-rule:nonzero;stroke:none" />
  <path
     inkscape:connector-curvature="0"
     id="path17"
     d="m 24,11.773438 c 1.371094,0 2.496094,-0.449219 3.332032,-1.28125 l -0.625,-0.851563 c -0.660157,0.679688 -1.632813,1.058594 -2.585938,1.058594 -1.800781,0 -2.910156,-1.316406 -3.015625,-2.894531 l 6.78125,0 0,-0.332031 c 0,-2.511719 -1.492187,-4.488282 -4.023437,-4.488282 -2.394532,0 -4.128907,1.957032 -4.128907,4.386719 0,2.617187 1.785157,4.402344 4.265625,4.402344 z m 2.601563,-4.921875 -5.496094,0 c 0.07031,-1.285156 0.953125,-2.792969 2.738281,-2.792969 1.910156,0 2.742188,1.542969 2.757813,2.792969 z m 0,0"
     style="fill:#303030;fill-opacity:1;fill-rule:nonzero;stroke:none" />
  <path
     inkscape:connector-curvature="0"
     id="path19"
     d="m 36.832032,11.566407 0,-1.125 -4.714844,0 4.644531,-6.261719 0,-0.988281 -6.308594,0 0,1.144531 4.609375,0 -4.609375,6.226562 0,1.003907 z m 0,0"
     style="fill:#303030;fill-opacity:1;fill-rule:nonzero;stroke:none" />
  <path
     inkscape:connector-curvature="0"
     id="path21"
     d="m 43.683594,11.773438 c 1.367188,0 2.496094,-0.449219 3.328125,-1.28125 l -0.625,-0.851563 c -0.65625,0.679688 -1.628906,1.058594 -2.582031,1.058594 -1.804688,0 -2.914063,-1.316406 -3.019532,-2.894531 l 6.78125,0 0,-0.332031 c 0,-2.511719 -1.492187,-4.488282 -4.023437,-4.488282 -2.390625,0 -4.125,1.957032 -4.125,4.386719 0,2.617187 1.785156,4.402344 4.265625,4.402344 z m 2.601562,-4.921875 -5.5,0 c 0.07031,-1.285156 0.957032,-2.792969 2.742188,-2.792969 1.90625,0 2.738281,1.542969 2.757812,2.792969 z m 0,0"
     style="fill:#303030;fill-opacity:1;fill-rule:nonzero;stroke:none" />
  <path
     inkscape:connector-curvature="0"
     id="path23"
     d="m 51.832032,11.566407 0,-5.929688 c 0.382812,-0.675781 1.472656,-1.335938 2.273437,-1.335938 0.207031,0 0.363281,0.01953 0.519531,0.05078 l 0,-1.332032 c -1.144531,0 -2.117187,0.640626 -2.792968,1.523438 l 0,-1.351562 -1.300782,0 0,8.375 z m 0,0"
     style="fill:#303030;fill-opacity:1;fill-rule:nonzero;stroke:none" />
  <path
     inkscape:connector-curvature="0"
     id="path25"
     d="m 67.316406,11.566407 0,-4.890626 L 71.859375,0 70.179688,0 66.589844,5.375 63,0 l -1.683594,0 4.5625,6.675781 0,4.890626 z m 0,0"
     style="fill:#303030;fill-opacity:1;fill-rule:nonzero;stroke:none" />
  <path
     inkscape:connector-curvature="0"
     id="path27"
     d="m 79.578125,11.566407 0,-8.375 -1.300781,0 0,6.15625 c -0.484375,0.675781 -1.457031,1.265624 -2.480469,1.265624 -1.125,0 -1.871093,-0.433593 -1.871093,-1.90625 l 0,-5.515624 -1.300782,0 0,5.914062 c 0,1.820312 0.917969,2.667969 2.667969,2.667969 1.25,0 2.34375,-0.65625 2.984375,-1.386719 l 0,1.179688 z m 0,0"
     style="fill:#303030;fill-opacity:1;fill-rule:nonzero;stroke:none" />
  <path
     inkscape:connector-curvature="0"
     id="path29"
     d="m 90.414064,11.566407 0,-11.566407 -1.30078,0 0,4.457031 c -0.67578,-0.917968 -1.69922,-1.472656 -2.824221,-1.472656 -2.203125,0 -3.730469,1.734375 -3.730469,4.402344 0,2.722656 1.542969,4.386719 3.730469,4.386719 1.179691,0 2.203121,-0.605469 2.824221,-1.453125 l 0,1.246094 z m -3.812501,-0.953126 c -1.683594,0 -2.6875,-1.371093 -2.6875,-3.226562 0,-1.855469 1.003906,-3.242188 2.6875,-3.242188 1.039061,0 2.042971,0.625 2.511721,1.351563 l 0,3.800781 c -0.46875,0.726563 -1.47266,1.316406 -2.511721,1.316406 z m 0,0"
     style="fill:#303030;fill-opacity:1;fill-rule:nonzero;stroke:none" />
  <path
     inkscape:connector-curvature="0"
     id="path31"
     d="m 101.2539,11.566407 -3.730466,-4.578126 3.710936,-3.796874 -1.644526,0 -4.40625,4.457031 0,-7.648438 -1.30078,0 0,11.566407 1.30078,0 0,-2.390626 1.38672,-1.371093 3.01953,3.761719 z m 0,0"
     style="fill:#303030;fill-opacity:1;fill-rule:nonzero;stroke:none" />
  <path
     inkscape:connector-curvature="0"
     id="path33"
     d="m 107.26953,11.773438 c 2.55078,0 4.14453,-1.976563 4.14453,-4.402344 0,-2.429687 -1.59375,-4.386719 -4.14453,-4.386719 -2.54688,0 -4.14453,1.957032 -4.14453,4.386719 0,2.425781 1.59765,4.402344 4.14453,4.402344 z m 0,-1.160157 c -1.78516,0 -2.79297,-1.527343 -2.79297,-3.242187 0,-1.699219 1.00781,-3.226563 2.79297,-3.226563 1.78515,0 2.77344,1.527344 2.77344,3.226563 0,1.714844 -0.98829,3.242187 -2.77344,3.242187 z m 0,0"
     style="fill:#303030;fill-opacity:1;fill-rule:nonzero;stroke:none" />
  <path
     inkscape:connector-curvature="0"
     id="path35"
     d="m 122.94531,11.566407 2.67187,-8.375 -1.35156,0 -2.04687,6.675781 -2.20313,-6.675781 -1.10937,0 -2.20313,6.675781 -2.04687,-6.675781 -1.35157,0 2.67188,8.375 1.30078,0 2.18359,-6.726563 2.1836,6.726563 z m 0,0"
     style="fill:#303030;fill-opacity:1;fill-rule:nonzero;stroke:none" />
  <path
     inkscape:connector-curvature="0"
     id="path37"
     d="m 130.64453,11.773438 c 2.16797,0 3.29687,-1.125 3.29687,-2.53125 0,-3.257813 -5.1875,-2.046875 -5.1875,-3.882813 0,-0.746094 0.71094,-1.316406 1.85547,-1.316406 1.07813,0 1.99609,0.449219 2.5,1.054688 l 0.60547,-0.902344 c -0.67578,-0.675782 -1.68359,-1.210938 -3.10547,-1.210938 -1.99219,0 -3.12109,1.109375 -3.12109,2.410156 0,3.101563 5.1875,1.855469 5.1875,3.882813 0,0.832031 -0.69532,1.441406 -1.97657,1.441406 -1.14453,0 -2.20312,-0.554687 -2.75781,-1.199219 l -0.67578,0.9375 c 0.84766,0.902344 2.00781,1.316407 3.37891,1.316407 z m 0,0"
     style="fill:#303030;fill-opacity:1;fill-rule:nonzero;stroke:none" />
  <path
     inkscape:connector-curvature="0"
     id="path39"
     d="m 144.29296,11.566407 -3.73046,-4.578126 3.71093,-3.796874 -1.64453,0 -4.40625,4.457031 0,-7.648438 -1.30078,0 0,11.566407 1.30078,0 0,-2.390626 1.38672,-1.371093 3.01953,3.761719 z m 0,0"
     style="fill:#303030;fill-opacity:1;fill-rule:nonzero;stroke:none" />
  <path
     inkscape:connector-curvature="0"
     id="path41"
     d="m 146.23437,14.84375 c 0.24219,0.07031 0.67578,0.121094 0.95313,0.121094 1.10937,-0.01563 1.96093,-0.484375 2.46484,-1.699219 l 4.19531,-10.074218 -1.42187,0 -2.77344,6.867187 -2.79297,-6.867187 -1.40625,0 3.50391,8.460937 -0.55469,1.265625 c -0.29688,0.695312 -0.67578,0.886719 -1.25,0.886719 -0.20703,0 -0.51953,-0.05469 -0.71094,-0.140625 z m 0,0"
     style="fill:#303030;fill-opacity:1;fill-rule:nonzero;stroke:none" />
</svg>
