<?xml version="1.0" encoding="UTF-8" standalone="no"?>
<svg
   xmlns:dc="http://purl.org/dc/elements/1.1/"
   xmlns:cc="http://creativecommons.org/ns#"
   xmlns:rdf="http://www.w3.org/1999/02/22-rdf-syntax-ns#"
   xmlns:svg="http://www.w3.org/2000/svg"
   xmlns="http://www.w3.org/2000/svg"
   xmlns:sodipodi="http://sodipodi.sourceforge.net/DTD/sodipodi-0.dtd"
   xmlns:inkscape="http://www.inkscape.org/namespaces/inkscape"
   width="9.8874998pt"
   height="44.0704pt"
   viewBox="0 0 9.8874998 44.0704"
   version="1.1"
   id="svg2"
   inkscape:version="0.91 r13725"
   sodipodi:docname="big_right_parens.svg">
  <metadata
     id="metadata24">
    <rdf:RDF>
      <cc:Work
         rdf:about="">
        <dc:format>image/svg+xml</dc:format>
        <dc:type
           rdf:resource="http://purl.org/dc/dcmitype/StillImage" />
        <dc:title></dc:title>
      </cc:Work>
    </rdf:RDF>
  </metadata>
  <sodipodi:namedview
     pagecolor="#ffffff"
     bordercolor="#666666"
     borderopacity="1"
     objecttolerance="10"
     gridtolerance="10"
     guidetolerance="10"
     inkscape:pageopacity="0"
     inkscape:pageshadow="2"
     inkscape:window-width="1883"
     inkscape:window-height="1036"
     id="namedview22"
     showgrid="false"
     fit-margin-top="0"
     fit-margin-left="0"
     fit-margin-right="0"
     fit-margin-bottom="0"
     inkscape:zoom="13.254448"
     inkscape:cx="9.08448"
     inkscape:cy="31.006734"
     inkscape:window-x="0"
     inkscape:window-y="0"
     inkscape:window-maximized="1"
     inkscape:current-layer="svg2" />
  <defs
     id="defs4">
    <clipPath
       id="clip1">
      <path
         d="m 0,0 27.738281,0 0,56.976562 -27.738281,0 z m 0,0"
         id="path7"
         inkscape:connector-curvature="0" />
    </clipPath>
  </defs>
  <path
     inkscape:connector-curvature="0"
     id="path20"
     d="M 7.992187,21.308369 C 7.992187,13.601338 4.964843,5.7028997 0.472656,1.3513377 0.09375,0.97633775 0,0.69118175 0,0.49977575 0,0.21852575 0.326638,0 0.9907,0 1.27195,0 1.7429481,0.16289955 2.2819,0.69118175 5.87565,4.4724317 9.8875,12.371056 9.8875,22.3984 c 0,8.039063 -2.603575,15.370907 -7.6192,21.140438 -0.4170298,0.399886 -0.5511035,0.531562 -0.8576,0.531562 -0.378906,0 -0.418513,-0.01203 -0.703669,-0.250312 -0.234375,-0.28125 -0.1875,-0.660156 0.04687,-0.945312 4.777344,-6.714844 7.238281,-10.308594 7.238286,-21.566407 z"
     style="fill:#303030;fill-opacity:1;fill-rule:nonzero;stroke:none"
     sodipodi:nodetypes="scsscscsccs" />
</svg>
