<?xml version="1.0" encoding="UTF-8" standalone="no"?>
<svg
   xmlns:dc="http://purl.org/dc/elements/1.1/"
   xmlns:cc="http://creativecommons.org/ns#"
   xmlns:rdf="http://www.w3.org/1999/02/22-rdf-syntax-ns#"
   xmlns:svg="http://www.w3.org/2000/svg"
   xmlns="http://www.w3.org/2000/svg"
   xmlns:sodipodi="http://sodipodi.sourceforge.net/DTD/sodipodi-0.dtd"
   xmlns:inkscape="http://www.inkscape.org/namespaces/inkscape"
   width="465.41885pt"
   height="75.821136pt"
   viewBox="0 0 465.41886 75.821137"
   version="1.1"
   id="svg2"
   inkscape:version="0.91 r13725"
   sodipodi:docname="Header.svg">
  <metadata
     id="metadata46">
    <rdf:RDF>
      <cc:Work
         rdf:about="">
        <dc:format>image/svg+xml</dc:format>
        <dc:type
           rdf:resource="http://purl.org/dc/dcmitype/StillImage" />
        <dc:title></dc:title>
      </cc:Work>
    </rdf:RDF>
  </metadata>
  <sodipodi:namedview
     pagecolor="#ffffff"
     bordercolor="#666666"
     borderopacity="1"
     objecttolerance="10"
     gridtolerance="10"
     guidetolerance="10"
     inkscape:pageopacity="0"
     inkscape:pageshadow="2"
     inkscape:window-width="1884"
     inkscape:window-height="1036"
     id="namedview44"
     showgrid="false"
     fit-margin-top="0"
     fit-margin-left="0"
     fit-margin-right="0"
     fit-margin-bottom="0"
     inkscape:zoom="1.2435915"
     inkscape:cx="294.49083"
     inkscape:cy="107.33084"
     inkscape:window-x="0"
     inkscape:window-y="0"
     inkscape:window-maximized="1"
     inkscape:current-layer="svg2" />
  <defs
     id="defs4">
    <clipPath
       id="clip1">
      <path
         d="m 0,0 498.55078,0 0,115.45313 -498.55078,0 z m 0,0"
         id="path7"
         inkscape:connector-curvature="0" />
    </clipPath>
  </defs>
  <path
     inkscape:connector-curvature="0"
     id="path20"
     d="m 2.6273589,2.6273589 460.1641911,0 0,70.5664261 -460.1641911,0 z m 0,0"
     style="fill:none;stroke:#000000;stroke-width:5.25471783;stroke-linecap:butt;stroke-linejoin:miter;stroke-miterlimit:4;stroke-opacity:1" />
  <path
     inkscape:connector-curvature="0"
     id="path22"
     d="M 54.713284,57.053121 46.889065,42.955465 c 3.566406,-1.265625 7.652344,-4.832031 7.652344,-11.507812 0,-7.132813 -4.832031,-12.773438 -13.351562,-12.773438 l -19.214844,0 0,38.378906 9.894531,0 0,-12.890625 5.0625,0 6.445313,12.890625 z M 39.693753,35.53359 l -7.824219,0 0,-8.226563 7.824219,0 c 2.589844,0 4.777344,1.496094 4.777344,4.082032 0,2.707031 -2.1875,4.144531 -4.777344,4.144531 z m 0,0"
     style="fill:#303030;fill-opacity:1;fill-rule:nonzero;stroke:none" />
  <path
     inkscape:connector-curvature="0"
     id="path24"
     d="m 103.04532,57.053121 -14.500001,-38.378906 -12.425785,0 -14.445313,38.378906 11.222657,0 1.898437,-5.523437 15.132814,0 1.89844,5.523437 z m -15.824223,-14.15625 -9.78125,0 4.890624,-14.441406 z m 0,0"
     style="fill:#303030;fill-opacity:1;fill-rule:nonzero;stroke:none" />
  <path
     inkscape:connector-curvature="0"
     id="path26"
     d="m 126.52188,57.053121 0,-29.746094 10.70312,0 0,-8.632812 -31.35937,0 0,8.632812 10.76172,0 0,29.746094 z m 0,0"
     style="fill:#303030;fill-opacity:1;fill-rule:nonzero;stroke:none" />
  <path
     inkscape:connector-curvature="0"
     id="path28"
     d="m 157.59219,57.053121 0,-38.378906 -9.89453,0 0,38.378906 z m 0,0"
     style="fill:#303030;fill-opacity:1;fill-rule:nonzero;stroke:none" />
  <path
     inkscape:connector-curvature="0"
     id="path30"
     d="m 188.83828,57.744527 c 11.73829,0 20.48438,-8.171874 20.48438,-19.851562 0,-11.679688 -8.74609,-19.851562 -20.48438,-19.851562 -11.73828,0 -20.54296,8.171874 -20.54296,19.851562 0,11.679688 8.80468,19.851562 20.54296,19.851562 z m 0,-8.746093 c -6.38671,0 -10.47265,-4.890625 -10.47265,-11.105469 0,-6.273438 4.08594,-11.105469 10.47265,-11.105469 6.32813,0 10.41407,4.832031 10.41407,11.105469 0,6.214844 -4.08594,11.105469 -10.41407,11.105469 z m 0,0"
     style="fill:#303030;fill-opacity:1;fill-rule:nonzero;stroke:none" />
  <path
     inkscape:connector-curvature="0"
     id="path32"
     d="m 255.75625,57.053121 0,-38.378906 -9.95703,0 0,21.117188 -15.53515,-21.117188 -10.1836,0 0,38.378906 9.89844,0 0,-22.210937 16.22656,22.210937 z m 0,0"
     style="fill:#303030;fill-opacity:1;fill-rule:nonzero;stroke:none" />
  <path
     inkscape:connector-curvature="0"
     id="path34"
     d="m 305.69766,57.053121 -14.5,-38.378906 -12.42578,0 -14.44141,38.378906 11.21875,0 1.89844,-5.523437 15.13281,0 1.89844,5.523437 z m -15.82031,-14.15625 -9.78125,0 4.89062,-14.441406 z m 0,0"
     style="fill:#303030;fill-opacity:1;fill-rule:nonzero;stroke:none" />
  <path
     inkscape:connector-curvature="0"
     id="path36"
     d="m 339.58828,57.053121 0,-8.632812 -15.41796,0 0,-29.746094 -9.89844,0 0,38.378906 z m 0,0"
     style="fill:#303030;fill-opacity:1;fill-rule:nonzero;stroke:none" />
  <path
     inkscape:connector-curvature="0"
     id="path38"
     d="m 360.36172,57.053121 0,-38.378906 -9.89844,0 0,38.378906 z m 0,0"
     style="fill:#303030;fill-opacity:1;fill-rule:nonzero;stroke:none" />
  <path
     inkscape:connector-curvature="0"
     id="path40"
     d="m 391.49063,57.053121 0,-29.746094 10.70312,0 0,-8.632812 -31.35937,0 0,8.632812 10.75781,0 0,29.746094 z m 0,0"
     style="fill:#303030;fill-opacity:1;fill-rule:nonzero;stroke:none" />
  <path
     inkscape:connector-curvature="0"
     id="path42"
     d="m 433.0336,57.053121 0,-15.476562 14.5,-22.902344 -11.21875,0 -8.23047,14.15625 -8.34375,-14.15625 -11.16016,0 14.55469,22.902344 0,15.476562 z m 0,0"
     style="fill:#303030;fill-opacity:1;fill-rule:nonzero;stroke:none" />
</svg>
