<?xml version="1.0" encoding="UTF-8" standalone="no"?>
<svg
   xmlns:dc="http://purl.org/dc/elements/1.1/"
   xmlns:cc="http://creativecommons.org/ns#"
   xmlns:rdf="http://www.w3.org/1999/02/22-rdf-syntax-ns#"
   xmlns:svg="http://www.w3.org/2000/svg"
   xmlns="http://www.w3.org/2000/svg"
   xmlns:sodipodi="http://sodipodi.sourceforge.net/DTD/sodipodi-0.dtd"
   xmlns:inkscape="http://www.inkscape.org/namespaces/inkscape"
   width="334.98828pt"
   height="16.3125pt"
   viewBox="0 0 334.98829 16.3125"
   version="1.1"
   id="svg2"
   inkscape:version="0.91 r13725"
   sodipodi:docname="subtitle.svg">
  <metadata
     id="metadata52">
    <rdf:RDF>
      <cc:Work
         rdf:about="">
        <dc:format>image/svg+xml</dc:format>
        <dc:type
           rdf:resource="http://purl.org/dc/dcmitype/StillImage" />
        <dc:title />
      </cc:Work>
    </rdf:RDF>
  </metadata>
  <sodipodi:namedview
     pagecolor="#ffffff"
     bordercolor="#666666"
     borderopacity="1"
     objecttolerance="10"
     gridtolerance="10"
     guidetolerance="10"
     inkscape:pageopacity="0"
     inkscape:pageshadow="2"
     inkscape:window-width="1884"
     inkscape:window-height="1036"
     id="namedview50"
     showgrid="false"
     fit-margin-top="0"
     fit-margin-left="0"
     fit-margin-right="0"
     fit-margin-bottom="0"
     inkscape:zoom="1.770853"
     inkscape:cx="112.30211"
     inkscape:cy="-14.21692"
     inkscape:window-x="0"
     inkscape:window-y="0"
     inkscape:window-maximized="1"
     inkscape:current-layer="svg2" />
  <defs
     id="defs4">
    <clipPath
       id="clip1">
      <path
         d="m 0,0 350.10937,0 0,38.234375 -350.10937,0 z m 0,0"
         id="path7"
         inkscape:connector-curvature="0" />
    </clipPath>
  </defs>
  <path
     inkscape:connector-curvature="0"
     id="path20"
     d="m 5.620533,16.03125 0,-7.472656 8.492187,0 0,-1.230469 -8.492187,0 0,-5.839843 8.65625,0 0,-1.230469 -10.003907,0 0,15.773437 z m 0,0"
     style="fill:#303030;fill-opacity:1;fill-rule:nonzero;stroke:none" />
  <path
     inkscape:connector-curvature="0"
     id="path22"
     d="m 33.878345,16.03125 -4.5625,-6.621094 c 2.339844,-0.09375 4.375,-1.679687 4.375,-4.539062 0,-2.886719 -2.082031,-4.613281 -4.800781,-4.613281 l -5.886719,0 0,15.773437 1.347656,0 0,-6.527344 3.476563,0 4.421875,6.527344 z m -5.105469,-7.757812 -4.421875,0 0,-6.785156 4.421875,0 c 2.078125,0 3.5,1.394531 3.5,3.382812 0,1.984375 -1.421875,3.402344 -3.5,3.402344 z m 0,0"
     style="fill:#303030;fill-opacity:1;fill-rule:nonzero;stroke:none" />
  <path
     inkscape:connector-curvature="0"
     id="path24"
     d="m 50.030689,16.3125 c 4.609375,0 7.660156,-3.546875 7.660156,-8.15625 C 57.690845,3.546875 54.640064,0 50.030689,0 45.39397,0 42.366626,3.546875 42.366626,8.15625 c 0,4.609375 3.027344,8.15625 7.664063,8.15625 z m 0,-1.226562 c -3.832032,0 -6.242188,-2.957032 -6.242188,-6.929688 0,-4.019531 2.410156,-6.929687 6.242188,-6.929687 3.78125,0 6.242187,2.910156 6.242187,6.929687 0,3.972656 -2.460937,6.929688 -6.242187,6.929688 z m 0,0"
     style="fill:#303030;fill-opacity:1;fill-rule:nonzero;stroke:none" />
  <path
     inkscape:connector-curvature="0"
     id="path26"
     d="m 81.690845,16.03125 0,-15.773437 -2.03125,0 -5.34375,13.007812 -5.367188,-13.007812 -2.011718,0 0,15.773437 1.347656,0 0,-13.929687 5.769531,13.929687 0.519531,0 5.746094,-13.929687 0,13.929687 z m 0,0"
     style="fill:#303030;fill-opacity:1;fill-rule:nonzero;stroke:none" />
  <path
     inkscape:connector-curvature="0"
     id="path28"
     d="m 117.87054,16.03125 -6.07813,-15.773437 -4.21093,0 -6.09767,15.773437 3.82813,0 0.99219,-2.671875 6.76563,0 0.96875,2.671875 z m -5.72266,-5.628906 -4.91797,0 2.45703,-6.785156 z m 0,0"
     style="fill:#303030;fill-opacity:1;fill-rule:nonzero;stroke:none" />
  <path
     inkscape:connector-curvature="0"
     id="path30"
     d="m 126.98382,16.03125 0,-15.773437 -1.34766,0 0,15.773437 z m 0,0"
     style="fill:#303030;fill-opacity:1;fill-rule:nonzero;stroke:none" />
  <path
     inkscape:connector-curvature="0"
     id="path32"
     d="m 154.24944,16.03125 0,-14.542968 5.15625,0 0,-1.230469 -11.68359,0 0,1.230469 5.15625,0 0,14.542968 z m 0,0"
     style="fill:#303030;fill-opacity:1;fill-rule:nonzero;stroke:none" />
  <path
     inkscape:connector-curvature="0"
     id="path34"
     d="m 174.49163,16.3125 c 4.60938,0 7.66016,-3.546875 7.66016,-8.15625 C 182.15179,3.546875 179.10101,0 174.49163,0 c -4.63672,0 -7.66406,3.546875 -7.66406,8.15625 0,4.609375 3.02734,8.15625 7.66406,8.15625 z m 0,-1.226562 c -3.83203,0 -6.24219,-2.957032 -6.24219,-6.929688 0,-4.019531 2.41016,-6.929687 6.24219,-6.929687 3.78125,0 6.24219,2.910156 6.24219,6.929687 0,3.972656 -2.46094,6.929688 -6.24219,6.929688 z m 0,0"
     style="fill:#303030;fill-opacity:1;fill-rule:nonzero;stroke:none" />
  <path
     inkscape:connector-curvature="0"
     id="path36"
     d="m 214.46819,16.03125 0,-2.957031 -7.61328,0 7.44922,-10.121094 0,-2.695312 -11.84766,0 0,2.957031 7.44922,0 -7.44922,10.097656 0,2.71875 z m 0,0"
     style="fill:#303030;fill-opacity:1;fill-rule:nonzero;stroke:none" />
  <path
     inkscape:connector-curvature="0"
     id="path38"
     d="m 230.40179,16.3125 c 4.60937,0 7.66015,-3.546875 7.66015,-8.15625 C 238.06194,3.546875 235.01116,0 230.40179,0 c -4.63672,0 -7.66407,3.546875 -7.66407,8.15625 0,4.609375 3.02735,8.15625 7.66407,8.15625 z m 0,-1.226562 c -3.83203,0 -6.24219,-2.957032 -6.24219,-6.929688 0,-4.019531 2.41016,-6.929687 6.24219,-6.929687 3.78125,0 6.24218,2.910156 6.24218,6.929687 0,3.972656 -2.46093,6.929688 -6.24218,6.929688 z m 0,0"
     style="fill:#303030;fill-opacity:1;fill-rule:nonzero;stroke:none" />
  <path
     inkscape:connector-curvature="0"
     id="path40"
     d="m 262.06194,16.03125 0,-15.773437 -2.03125,0 -5.34375,13.007812 -5.37109,-13.007812 -2.00781,0 0,15.773437 1.34765,0 0,-13.929687 5.76953,13.929687 0.51954,0 5.74609,-13.929687 0,13.929687 z m 0,0"
     style="fill:#303030;fill-opacity:1;fill-rule:nonzero;stroke:none" />
  <path
     inkscape:connector-curvature="0"
     id="path42"
     d="m 278.51897,16.03125 c 2.81641,0 4.51954,-1.632812 4.51954,-4.257812 0,-1.867188 -1.39454,-3.617188 -3.07422,-3.878906 1.41797,-0.28125 2.76562,-1.628907 2.76562,-3.617188 0,-2.480469 -1.70312,-4.019531 -4.35156,-4.019531 l -6.48047,0 0,15.773437 z m -0.30468,-8.703125 -4.96485,0 0,-5.839843 4.96485,0 c 2.03125,0 3.09765,1.324218 3.09765,2.933593 0,1.628907 -1.0664,2.90625 -3.09765,2.90625 z m 0.0937,7.472657 -5.0586,0 0,-6.242188 5.0586,0 c 2.19922,0 3.30859,1.511719 3.30859,3.121094 0,1.914062 -1.22656,3.121094 -3.30859,3.121094 z m 0,0"
     style="fill:#303030;fill-opacity:1;fill-rule:nonzero;stroke:none" />
  <path
     inkscape:connector-curvature="0"
     id="path44"
     d="m 293.67913,16.03125 0,-15.773437 -1.34766,0 0,15.773437 z m 0,0"
     style="fill:#303030;fill-opacity:1;fill-rule:nonzero;stroke:none" />
  <path
     inkscape:connector-curvature="0"
     id="path46"
     d="m 313.51897,16.03125 0,-1.230468 -8.65625,0 0,-6.242188 8.48829,0 0,-1.230469 -8.48829,0 0,-5.839843 8.65625,0 0,-1.230469 -10.0039,0 0,15.773437 z m 0,0"
     style="fill:#303030;fill-opacity:1;fill-rule:nonzero;stroke:none" />
  <path
     inkscape:connector-curvature="0"
     id="path48"
     d="m 327.65569,16.3125 c 4.25782,0 5.60547,-2.433594 5.60547,-4.46875 0,-5.886718 -9.45703,-3.664062 -9.45703,-7.707031 0,-1.703125 1.58203,-2.910156 3.6875,-2.910156 1.77344,0 3.38281,0.617187 4.51563,1.988281 l 0.89843,-0.992188 C 331.67913,0.824219 329.92913,0 327.56194,0 c -2.85937,0 -5.17578,1.628906 -5.17578,4.207032 0,5.507812 9.45703,3.097656 9.45703,7.734374 0,1.347657 -0.92187,3.144532 -4.16015,3.144532 -2.25,0 -3.90235,-1.113282 -4.92188,-2.296875 l -0.875,1.019531 c 1.20703,1.464844 3.17188,2.503906 5.76953,2.503906 z m 0,0"
     style="fill:#303030;fill-opacity:1;fill-rule:nonzero;stroke:none" />
</svg>
